# xmcd
#
# Track frame offsets:
#	150
#	18438
#	36372
#	53880
#	70455
#	85827
#	95580
#	112527
#	130398
#	146733
#	164439
#	181443
#	197970
#	215646
#	235042
#	250088
#	265257
#	284490
#	301169
#	314801
#	341071
#
# Disc length: 4751 seconds
#
# Revision: 1
# Processed by: cddbd v1.5.1PL2 Copyright (c) Steve Scherf et al.
# Submitted via: EasyCDDAExtractor 6.2.0.3
#
DISCID=42128d15
DTITLE=Various Artist - 2x plus 2 Groove CD 2
DYEAR=2005
DGENRE=Groove
TTITLE0=Kayliah - Quand une fille est love
TTITLE1=Nadiya - Megamix
TTITLE2=L'algerino - On est la
TTITLE3=Assia - Politiquement correct
TTITLE4=Attitude - Lache l'affaire
TTITLE5=Speedy - El amor con la ropa
TTITLE6=Tragedie - L'art du corps et du coeur
TTITLE7=Priss - N°1 dans ma ville
TTITLE8=Hot vibes baby - Hot
TTITLE9=Gage - Pense a moi
TTITLE10=Big red - Dis-moi
TTITLE11=Sir samuel - Blackadee
TTITLE12=Orishas - Naci orishas
TTITLE13=Def bond - Diablesse
TTITLE14=Faith evans - Again
TTITLE15=Kelis - Trick me
TTITLE16=Jamelia and singuila - Thank you
TTITLE17=Oxmo puccino - Black desperado
TTITLE18=St ange - Aaho waï
TTITLE19=Tsutone - Maintenant
TTITLE20=www
EXTD=
EXTT0=
EXTT1=
EXTT2=
EXTT3=
EXTT4=
EXTT5=
EXTT6=
EXTT7=
EXTT8=
EXTT9=
EXTT10=
EXTT11=
EXTT12=
EXTT13=
EXTT14=
EXTT15=
EXTT16=
EXTT17=
EXTT18=
EXTT19=
EXTT20=
PLAYORDER=
